Coordinates
version=1
nRows=31
nColumns=38
inDegrees=no

Units are S.I. units (second, meters, Newtons, ...)
If the header above contains a line with 'inDegrees', this indicates whether rotational values are in degrees (yes) or radians (no).

endheader
time	pelvis_tilt	pelvis_list	pelvis_rotation	pelvis_tx	pelvis_ty	pelvis_tz	hip_flexion_r	hip_adduction_r	hip_rotation_r	knee_angle_r	ankle_angle_r	subtalar_angle_r	mtp_angle_r	hip_flexion_l	hip_adduction_l	hip_rotation_l	knee_angle_l	ankle_angle_l	subtalar_angle_l	mtp_angle_l	lumbar_extension	lumbar_bending	lumbar_rotation	arm_flex_r	arm_add_r	arm_rot_r	elbow_flex_r	pro_sup_r	wrist_flex_r	wrist_dev_r	arm_flex_l	arm_add_l	arm_rot_l	elbow_flex_l	pro_sup_l	wrist_flex_l	wrist_dev_l
125	2.78676	1.47696	-1.21257	0.51342	1.3011	1.08816	0.182777	-0.0456149	0.0485904	0.491017	-0.387376	0	0	-0.0725079	0.0236598	-0.124084	0.183121	-0.338306	0	0	-0.125215	0.0677796	0.106237	0.26917	-0.423942	0.298224	1.40151	1.5708	0	0	0.170366	-0.0149569	0.210043	1.3101	1.5708	0	0
125.01	2.82422	1.47347	-1.24679	0.513381	1.30312	1.08839	0.171505	-0.0483339	0.0454938	0.486719	-0.38244	0	0	-0.0809067	0.025952	-0.12097	0.179305	-0.34494	0	0	-0.128989	0.0664654	0.0957938	0.280863	-0.421237	0.312857	1.39433	1.5708	0	0	0.165935	-0.0178215	0.200956	1.31599	1.5708	0	0
125.02	2.8529	1.47293	-1.27223	0.513423	1.30527	1.08833	0.163589	-0.0516438	0.0418678	0.482326	-0.377415	0	0	-0.0844065	0.0279962	-0.119605	0.179606	-0.343797	0	0	-0.129294	0.0637956	0.0922967	0.281674	-0.419126	0.314227	1.39332	1.5708	0	0	0.165236	-0.0197511	0.199497	1.31709	1.5708	0	0
125.03	2.88211	1.47229	-1.29803	0.513442	1.30739	1.0883	0.155004	-0.0552482	0.0374061	0.475239	-0.374864	0	0	-0.0876761	0.0300505	-0.117926	0.180275	-0.342796	0	0	-0.129774	0.0611268	0.0883317	0.282862	-0.416962	0.316142	1.39224	1.5708	0	0	0.164203	-0.0215409	0.197431	1.31849	1.5708	0	0
125.04	2.91104	1.47195	-1.32346	0.513439	1.30949	1.08824	0.146352	-0.05903	0.0325283	0.465946	-0.374121	0	0	-0.0904397	0.0323172	-0.115871	0.181033	-0.341805	0	0	-0.129861	0.0583576	0.0843293	0.283938	-0.414914	0.318179	1.39116	1.5708	0	0	0.163034	-0.0233026	0.195476	1.31973	1.5708	0	0
125.05	2.93801	1.47201	-1.34692	0.513482	1.31151	1.08816	0.137757	-0.0627215	0.0271865	0.454861	-0.374761	0	0	-0.092323	0.0345169	-0.113672	0.182382	-0.340588	0	0	-0.129589	0.055612	0.0803681	0.284938	-0.412758	0.32003	1.3901	1.5708	0	0	0.161901	-0.0251775	0.19372	1.32084	1.5708	0	0
125.06	2.9603	1.4726	-1.36568	0.513654	1.31349	1.08805	0.129377	-0.0659422	0.021022	0.442316	-0.377351	0	0	-0.0932358	0.0361866	-0.111488	0.184182	-0.339694	0	0	-0.128621	0.0532229	0.0770166	0.284872	-0.410578	0.320877	1.38964	1.5708	0	0	0.161045	-0.0273566	0.192649	1.32163	1.5708	0	0
125.07	2.86524	1.45768	-1.27027	0.51347	1.31378	1.09174	0.0805816	-0.0661802	-0.106291	0.340659	-0.46915	0	0	-0.106818	0.0215493	-0.111081	0.183102	-0.344336	0	0	-0.151346	0.0685216	0.0819948	0.288136	-0.415821	0.316377	1.39409	1.5708	0	0	0.169733	-0.0212447	0.193366	1.31569	1.5708	0	0
125.08	2.99494	1.47461	-1.39394	0.514241	1.31742	1.08792	0.111934	-0.0706032	0.00762242	0.411941	-0.380797	0	0	-0.0934832	0.0383905	-0.107749	0.18887	-0.335408	0	0	-0.124369	0.0503048	0.0646869	0.292935	-0.405055	0.335261	1.38164	1.5708	0	0	0.154366	-0.0327071	0.183051	1.32631	1.5708	0	0
125.09	3.00972	1.47806	-1.40713	0.514925	1.31951	1.08771	0.107808	-0.0726327	0.000849176	0.401035	-0.380761	0	0	-0.0910226	0.0393722	-0.107104	0.19108	-0.335098	0	0	-0.120593	0.0462885	0.070134	0.282383	-0.403457	0.323288	1.38684	1.5708	0	0	0.157208	-0.0346662	0.189924	1.32322	1.5708	0	0
125.1	3.13697	1.36724	-1.43879	0.506621	1.30391	1.09831	-0.0382619	-0.0804915	-0.117349	0.353881	-0.414588	0	0	-0.177795	0.0370006	0.0392814	0.222562	-0.326131	0	0	-0.279311	0.0578906	-0.042322	0.399066	-0.396541	0.388884	1.36116	1.5708	0	0	0.215224	-0.0554037	0.167638	1.34887	1.5708	0	0
125.11	3.02716	1.47876	-1.41856	0.515662	1.32296	1.08777	0.0931773	-0.0754414	-0.0205702	0.378907	-0.38591	0	0	-0.0901447	0.0391484	-0.102886	0.199238	-0.328182	0	0	-0.115706	0.0469888	0.0546503	0.298881	-0.399927	0.350355	1.37189	1.5708	0	0	0.149486	-0.0399848	0.17715	1.32622	1.5708	0	0
125.12	3.0304	1.48003	-1.41848	0.515932	1.32452	1.08784	0.0881982	-0.0763018	-0.0307905	0.371886	-0.385963	0	0	-0.0887547	0.0390941	-0.0985436	0.202158	-0.327169	0	0	-0.112362	0.0417881	0.0520279	0.304378	-0.401612	0.360181	1.36816	1.5708	0	0	0.149426	-0.0411411	0.17607	1.32531	1.5708	0	0
125.13	3.03487	1.47872	-1.42077	0.516473	1.32611	1.08798	0.080006	-0.0762629	-0.039774	0.363353	-0.386815	0	0	-0.0903452	0.0382704	-0.0971152	0.205426	-0.32521	0	0	-0.113105	0.0470444	0.0502257	0.301605	-0.397574	0.355776	1.36655	1.5708	0	0	0.149734	-0.0434593	0.17608	1.32318	1.5708	0	0
125.14	3.0424	1.48208	-1.42825	0.517502	1.32802	1.08796	0.0780847	-0.0765874	-0.0447413	0.357535	-0.38814	0	0	-0.0880466	0.0383891	-0.096639	0.206668	-0.325339	0	0	-0.106686	0.040518	0.0506769	0.30538	-0.398009	0.365304	1.36232	1.5708	0	0	0.147945	-0.0457997	0.175138	1.32273	1.5708	0	0
125.15	2.91616	1.46974	-1.30528	0.517894	1.3279	1.09159	0.0336299	-0.0665462	-0.139189	0.260717	-0.476248	0	0	-0.0986314	0.0231413	-0.0976604	0.205793	-0.330392	0	0	-0.126527	0.0565643	0.0600272	0.30834	-0.404299	0.360808	1.36533	1.5708	0	0	0.157656	-0.0388059	0.177173	1.31408	1.5708	0	0
125.16	3.05501	1.47932	-1.4398	0.519113	1.33106	1.08858	0.0660392	-0.0769264	-0.0596933	0.3496	-0.382068	0	0	-0.0929146	0.0372096	-0.0958988	0.209514	-0.323102	0	0	-0.106952	0.0400066	0.050354	0.310126	-0.395944	0.373028	1.35557	1.5708	0	0	0.148358	-0.0495333	0.173587	1.3201	1.5708	0	0
125.17	3.05448	1.47963	-1.43729	0.519805	1.33249	1.08866	0.0615647	-0.0765711	-0.0667583	0.344926	-0.382022	0	0	-0.0931951	0.0361386	-0.0922484	0.210972	-0.322298	0	0	-0.105759	0.0396609	0.050332	0.309891	-0.394964	0.373201	1.35411	1.5708	0	0	0.149288	-0.0513964	0.174374	1.31875	1.5708	0	0
125.18	3.06126	1.47379	-1.4438	0.520687	1.3336	1.08929	0.049031	-0.0752977	-0.0694743	0.335166	-0.384416	0	0	-0.101034	0.0349914	-0.0915165	0.210541	-0.321254	0	0	-0.113131	0.0451042	0.0509506	0.308542	-0.391157	0.367109	1.35369	1.5708	0	0	0.151904	-0.0538441	0.174939	1.31746	1.5708	0	0
125.19	3.06283	1.4745	-1.4442	0.521442	1.33494	1.08928	0.043485	-0.0744713	-0.0708059	0.325045	-0.386481	0	0	-0.10135	0.0343457	-0.0884385	0.211154	-0.319822	0	0	-0.110321	0.0451859	0.048666	0.313214	-0.390521	0.375198	1.34817	1.5708	0	0	0.150834	-0.0569717	0.173675	1.3173	1.5708	0	0
125.2	3.06852	1.47446	-1.44952	0.522306	1.33616	1.08936	0.037286	-0.0734895	-0.0693159	0.314705	-0.387909	0	0	-0.102669	0.0340868	-0.0865359	0.211368	-0.318816	0	0	-0.109047	0.0446301	0.0476653	0.317627	-0.390096	0.382089	1.34357	1.5708	0	0	0.15039	-0.0603771	0.173201	1.31785	1.5708	0	0
125.21	3.0772	1.47493	-1.45805	0.523177	1.33735	1.08934	0.0313035	-0.0723653	-0.0651319	0.303494	-0.388644	0	0	-0.103542	0.0343099	-0.0846507	0.211463	-0.317698	0	0	-0.107255	0.0438041	0.0466995	0.32194	-0.389922	0.389033	1.33943	1.5708	0	0	0.1496	-0.0638676	0.172545	1.31882	1.5708	0	0
125.22	3.08505	1.4751	-1.46593	0.524073	1.33851	1.08933	0.0271735	-0.0717874	-0.0636288	0.297085	-0.388606	0	0	-0.104979	0.0344354	-0.0832923	0.211124	-0.316652	0	0	-0.105872	0.0432902	0.0457893	0.326005	-0.389982	0.395757	1.33612	1.5708	0	0	0.14857	-0.0670613	0.171306	1.3199	1.5708	0	0
125.23	3.09166	1.4744	-1.47264	0.524972	1.33964	1.08938	0.023096	-0.0712734	-0.0638153	0.292743	-0.387911	0	0	-0.107642	0.0343838	-0.0821627	0.210203	-0.315078	0	0	-0.105272	0.0432337	0.0440952	0.331552	-0.390461	0.404908	1.33239	1.5708	0	0	0.14705	-0.0700083	0.168694	1.32135	1.5708	0	0
125.24	3.096	1.4739	-1.47692	0.52591	1.34077	1.0894	0.0196953	-0.0704879	-0.064392	0.289652	-0.387016	0	0	-0.109984	0.0339533	-0.0813537	0.209503	-0.313686	0	0	-0.104646	0.0431294	0.0430455	0.335417	-0.390842	0.411942	1.33009	1.5708	0	0	0.145807	-0.0730758	0.166984	1.32287	1.5708	0	0
125.25	3.09976	1.47316	-1.48048	0.526824	1.34184	1.08944	0.0160799	-0.0695525	-0.0645161	0.286661	-0.385948	0	0	-0.112432	0.033393	-0.0807153	0.20899	-0.31233	0	0	-0.104463	0.0431129	0.0417841	0.338969	-0.391258	0.419012	1.32858	1.5708	0	0	0.144479	-0.0762713	0.16541	1.32487	1.5708	0	0
125.26	3.10434	1.47189	-1.48472	0.527687	1.34282	1.08954	0.0121225	-0.0687005	-0.0643674	0.284154	-0.384831	0	0	-0.115128	0.0329021	-0.0803507	0.208877	-0.311212	0	0	-0.105162	0.0432374	0.0405456	0.342076	-0.391732	0.425408	1.32808	1.5708	0	0	0.143405	-0.0798576	0.164644	1.32728	1.5708	0	0
125.27	3.11369	1.46895	-1.49386	0.528597	1.34356	1.08983	0.0069396	-0.0682376	-0.0639551	0.282584	-0.38375	0	0	-0.119213	0.0328155	-0.0802938	0.209126	-0.31027	0	0	-0.107953	0.0431648	0.0393965	0.345864	-0.392187	0.431939	1.32781	1.5708	0	0	0.14325	-0.0839172	0.164226	1.32965	1.5708	0	0
125.28	3.11022	1.472	-1.48965	0.529212	1.34484	1.08949	0.00766753	-0.0672384	-0.0639362	0.280658	-0.383013	0	0	-0.117271	0.0321055	-0.0794005	0.209104	-0.309355	0	0	-0.102605	0.0440865	0.0375776	0.34637	-0.393739	0.438876	1.32885	1.5708	0	0	0.139655	-0.0876072	0.164013	1.33236	1.5708	0	0
125.29	3.1111	1.47224	-1.48973	0.53004	1.34586	1.08959	0.00548455	-0.0660762	-0.0635359	0.278549	-0.382818	0	0	-0.118194	0.0312957	-0.078638	0.208744	-0.30912	0	0	-0.100525	0.0408924	0.0368305	0.350583	-0.396145	0.448908	1.33013	1.5708	0	0	0.138072	-0.0915589	0.164713	1.33515	1.5708	0	0
125.3	3.10927	1.46881	-1.48698	0.530797	1.34665	1.08988	-0.000770042	-0.0643818	-0.0637031	0.275542	-0.382805	0	0	-0.12292	0.0297717	-0.0786185	0.208494	-0.308299	0	0	-0.105255	0.0457465	0.0353211	0.34711	-0.393998	0.444606	1.33369	1.5708	0	0	0.137344	-0.0957875	0.165312	1.33857	1.5708	0	0
